HIERARCHY
ROOT Hips
{
 OFFSET 0.000000 0.000000 0.000000
 CHANNELS 6 Xposition Yposition Zposition Yrotation Xrotation Zrotation
 JOINT Chest
 {
  OFFSET 0.000000 9.588913 -0.003946
  CHANNELS 3 Yrotation Xrotation Zrotation
  JOINT Chest2
  {
   OFFSET 0.000000 9.541882 0.008053
   CHANNELS 3 Yrotation Xrotation Zrotation
   JOINT Chest3
   {
    OFFSET 0.000000 9.501360 0.000000
    CHANNELS 3 Yrotation Xrotation Zrotation
    JOINT Chest4
    {
     OFFSET 0.000000 9.491660 0.000000
     CHANNELS 3 Yrotation Xrotation Zrotation
     JOINT Neck
     {
      OFFSET 0.000000 14.331917 0.000000
      CHANNELS 3 Yrotation Xrotation Zrotation
      JOINT Head
      {
       OFFSET 0.000000 8.884799 0.017034
       CHANNELS 3 Yrotation Xrotation Zrotation
       End Site
       {
        OFFSET 0.000000 16.896195 0.008993
       }
      }
     }
     JOINT RightCollar
     {
      OFFSET -2.923010 9.499495 0.000000
      CHANNELS 3 Yrotation Xrotation Zrotation
      JOINT RightShoulder
      {
       OFFSET -13.795216 0.000000 0.000000
       CHANNELS 3 Yrotation Xrotation Zrotation
       JOINT RightElbow
       {
        OFFSET -30.272209 0.000000 0.000000
        CHANNELS 3 Yrotation Xrotation Zrotation
        JOINT RightWrist
        {
         OFFSET -24.478199 0.000000 0.000000
         CHANNELS 3 Yrotation Xrotation Zrotation
         End Site
         {
          OFFSET -18.090752 0.000000 0.000000
         }
        }
       }
      }
     }
     JOINT LeftCollar
     {
      OFFSET 2.923010 9.499495 0.000000
      CHANNELS 3 Yrotation Xrotation Zrotation
      JOINT LeftShoulder
      {
       OFFSET 13.795216 0.000000 0.000000
       CHANNELS 3 Yrotation Xrotation Zrotation
       JOINT LeftElbow
       {
        OFFSET 30.272209 0.000000 0.000000
        CHANNELS 3 Yrotation Xrotation Zrotation
        JOINT LeftWrist
        {
         OFFSET 24.478199 0.000000 0.000000
         CHANNELS 3 Yrotation Xrotation Zrotation
         End Site
         {
          OFFSET 18.090752 0.000000 0.000000
         }
        }
       }
      }
     }
    }
   }
  }
 }
 JOINT RightHip
 {
  OFFSET -7.826875 0.019532 0.001973
  CHANNELS 3 Yrotation Xrotation Zrotation
  JOINT RightKnee
  {
   OFFSET 0.000000 -40.546152 -0.001885
   CHANNELS 3 Yrotation Xrotation Zrotation
   JOINT RightAnkle
   {
    OFFSET 0.000000 -39.417092 -0.003189
    CHANNELS 3 Yrotation Xrotation Zrotation
    JOINT RightToe
    {
     OFFSET 0.000000 -7.579396 17.243563
     CHANNELS 3 Yrotation Xrotation Zrotation
     End Site
     {
      OFFSET 0.000000 -1.500329 6.694466
     }
    }
   }
  }
 }
 JOINT LeftHip
 {
  OFFSET 7.826875 0.019532 0.001973
  CHANNELS 3 Yrotation Xrotation Zrotation
  JOINT LeftKnee
  {
   OFFSET 0.000000 -40.546152 -0.001885
   CHANNELS 3 Yrotation Xrotation Zrotation
   JOINT LeftAnkle
   {
    OFFSET 0.000000 -39.417092 -0.003189
    CHANNELS 3 Yrotation Xrotation Zrotation
    JOINT LeftToe
    {
     OFFSET 0.000000 -7.579396 17.243563
     CHANNELS 3 Yrotation Xrotation Zrotation
     End Site
     {
      OFFSET 0.000000 -1.500329 6.694466
     }
    }
   }
  }
 }
}
MOTION
Frames: 5
Frame Time: 0.008333
0.000000 87.345680 0.000000 0.000000 -5.767889 0.000000 0.000000 11.653876 0.000000 0.000000 -5.885988 0.000000 0.000000 -0.000000 0.000000 0.000000 -0.000000 0.000000 0.000000 12.528808 0.000000 0.000000 0.711711 0.000000 0.000000 -0.000000 0.000000 0.000000 -0.000000 0.000000 2.309063 -0.000000 0.000000 -2.309063 -0.000000 -0.000000 0.000000 -0.000000 0.000000 0.000000 0.000000 0.000000 -2.309063 0.000000 0.000000 2.309063 -0.000000 0.000000 0.000000 8.520374 0.000000 0.000000 1.905768 0.000000 -0.000000 -4.658254 0.000000 0.000000 -0.000000 0.000000 0.000000 8.520374 0.000000 0.000000 1.905768 0.000000 -0.000000 -4.658254 0.000000 0.000000 -0.000000 0.000000
6.855738 89.207199 7.200595 34.166218 -7.564715 -0.726301 -3.545474 3.549917 -0.963189 -2.034961 2.039418 -0.411140 -2.546388 2.546885 -0.525314 -2.034961 2.039418 -0.411140 11.465268 17.001755 -2.841559 22.108889 -2.888781 -9.019792 6.403050 1.575425 -2.849315 3.798336 -1.847785 90.806726 6.962472 -1.419452 2.252062 -1.006904 -5.297450 0.983355 10.492647 0.231246 0.702582 1.940804 -0.389890 -89.434548 -4.016701 5.987032 -0.486821 2.306480 -2.533674 -2.938920 -11.754986 10.655145 -0.316870 -7.343308 3.599990 -0.345512 -28.110812 -5.244516 3.086307 0.013168 -0.213808 0.010246 -17.015837 10.708478 -3.954773 -18.853202 0.189169 1.506029 -22.347954 -1.159090 1.814463 -0.009494 0.240940 0.003315
6.857070 89.206765 7.199451 34.159294 -7.562136 -0.731521 -3.542237 3.550590 -0.961941 -2.032212 2.041529 -0.411762 -2.542958 2.549524 -0.526089 -2.032212 2.041529 -0.411762 11.465084 17.002324 -2.842071 22.108631 -2.887663 -9.020560 6.404837 1.564877 -2.847788 3.803432 -1.842246 90.805587 6.966065 -1.420192 2.247672 -1.006767 -5.296080 0.985715 10.494927 0.215907 0.700851 1.944765 -0.388411 -89.436120 -4.026252 5.991009 -0.490444 2.306952 -2.542435 -2.935177 -11.748446 10.653106 -0.315753 -7.335579 3.605762 -0.347934 -28.088287 -5.244908 3.088495 0.014570 -0.214372 0.012696 -17.009815 10.715152 -3.959914 -18.860245 0.190776 1.508407 -22.261468 -1.162994 1.821262 -0.004169 0.241114 0.005012
6.859294 89.206395 7.198293 34.146024 -7.562353 -0.734968 -3.535559 3.553235 -0.962297 -2.028014 2.043502 -0.412274 -2.537715 2.551993 -0.526716 -2.028014 2.043502 -0.412274 11.464003 17.003510 -2.842363 22.106560 -2.885619 -9.020537 6.403080 1.556398 -2.846980 3.808772 -1.837513 90.803100 6.972627 -1.419149 2.244602 -1.009465 -5.297906 0.986575 10.497594 0.202200 0.699125 1.956395 -0.388912 -89.440609 -4.034811 5.998101 -0.489667 2.302729 -2.553868 -2.933189 -11.737793 10.652351 -0.315890 -7.328544 3.611493 -0.350090 -28.073595 -5.244852 3.092152 0.015097 -0.214078 0.013111 -16.998175 10.720097 -3.960696 -18.871037 0.189891 1.511555 -22.215503 -1.164044 1.822539 -0.002206 0.241609 0.004567
6.862382 89.206108 7.196966 34.139655 -7.564410 -0.737534 -3.531587 3.556614 -0.963039 -2.025146 2.045451 -0.412693 -2.534135 2.554430 -0.527235 -2.025146 2.045451 -0.412693 11.463257 17.005137 -2.842535 22.105002 -2.882734 -9.020312 6.399581 1.549682 -2.846560 3.818104 -1.834905 90.796738 6.978232 -1.421153 2.243581 -1.014373 -5.303931 0.987789 10.501566 0.191143 0.697324 1.968673 -0.390722 -89.445616 -4.042968 6.002285 -0.489333 2.291214 -2.564438 -2.931315 -11.731809 10.651560 -0.314871 -7.325294 3.616308 -0.351128 -28.085252 -5.243862 3.095709 0.014045 -0.213077 0.011842 -16.995215 10.726146 -3.964296 -18.877012 0.187745 1.514580 -22.178177 -1.162669 1.824835 -0.000544 0.241695 0.003464
